<svg width="650" height="517" viewBox="0 0 650 517" fill="none" xmlns="http://www.w3.org/2000/svg">
<g clip-path="url(#clip0)">
<path d="M243.106 216.052C243.106 216.052 296.374 219.295 299.583 242.812C302.792 266.328 237.33 245.244 237.33 245.244L243.106 216.052Z" fill="#A0616A"/>
<path d="M159.031 141.449C159.031 141.449 168.016 144.693 175.076 164.154C182.136 183.616 196.255 201.456 196.255 201.456L253.374 215.241L243.747 251.732L189.195 242.812L155.18 218.485L159.031 141.449Z" fill="#575A89"/>
<path opacity="0.1" d="M159.031 141.449C159.031 141.449 168.016 144.693 175.076 164.154C182.136 183.616 196.255 201.456 196.255 201.456L253.374 215.241L243.747 251.732L189.195 242.812L155.18 218.485L159.031 141.449Z" fill="black"/>
<path d="M596.411 75.3605H529.023V76.9823H596.411V75.3605Z" fill="#3F3D56"/>
<path d="M476.397 75.3605H262.68V76.9823H476.397V75.3605Z" fill="#3F3D56"/>
<path d="M525.815 270.788H19.4418V514.869H525.815V270.788Z" fill="#3F3D56"/>
<path d="M74.3148 104.147L80.0909 150.369L119.882 152.801L115.389 84.6857L74.3148 104.147Z" fill="#A0616A"/>
<path d="M32.2775 412.695L30.3522 514.869H90.6805L99.6655 474.324L106.725 514.869H169.621C169.621 514.869 170.904 398.099 163.845 397.288C156.785 396.477 32.2775 412.695 32.2775 412.695Z" fill="#2F2E41"/>
<path d="M87.1507 116.311C106.291 116.311 121.807 96.7062 121.807 72.5224C121.807 48.3386 106.291 28.7337 87.1507 28.7337C68.0103 28.7337 52.494 48.3386 52.494 72.5224C52.494 96.7062 68.0103 116.311 87.1507 116.311Z" fill="#A0616A"/>
<path d="M28.7478 417.155L46.7179 305.251L22.9717 156.856L77.6614 130.927L104.479 126.853L117.961 123.673L127.584 126.853C127.584 126.853 166.091 139.016 168.016 147.936C169.942 156.856 160.315 229.837 160.315 229.837L151.33 289.844L171.225 397.694C171.225 397.694 88.4343 433.373 30.0314 417.155H28.7478Z" fill="#575A89"/>
<path opacity="0.1" d="M52.8148 197.806V227.81L128.541 227.94L56.6656 218.079L52.8148 197.806Z" fill="black"/>
<path opacity="0.1" d="M46.311 280.669L141.382 263.489L46.311 297.512V280.669Z" fill="black"/>
<path opacity="0.1" d="M197.218 201.861L187.025 248.265L204.277 203.392L197.218 201.861Z" fill="black"/>
<path d="M115.672 28.6069L122.045 25.3832C122.045 25.3832 108.72 6.84706 90.1802 8.45898L95.3947 1.20562C95.3947 1.20562 82.6486 -5.24167 71.0613 11.6826C64.9701 20.5793 57.9225 31.0369 53.529 42.8173H46.704L49.5525 50.7421L39.5826 58.6669L49.8157 57.2435C49.206 61.5832 49.1124 66.0136 49.538 70.3883C49.977 74.7643 51.7444 78.7536 54.4672 81.5144C54.4672 81.5144 62.3709 60.8436 62.3709 57.6199V65.6791C62.3709 65.6791 68.7439 58.4259 68.7439 53.5904L72.2201 59.2318L73.9582 50.3667L95.3947 59.2318L91.9185 51.9786L105.244 54.3963L100.029 45.5312C100.029 45.5312 115.093 56.0081 115.672 64.8733C116.252 73.7383 120.661 82.1385 120.661 82.1385C120.661 82.1385 132.474 40.6957 115.672 28.6069Z" fill="#2F2E41"/>
<path d="M396.173 190.509H149.725V515.68H396.173V190.509Z" fill="#D0CDE1"/>
<path d="M357.665 261.868H175.397V294.304H357.665V261.868Z" fill="#6C63FF"/>
<path d="M326.101 347.823H206.731V364.041H326.101V347.823Z" fill="#6C63FF"/>
<path d="M326.331 376.205H206.962V392.423H326.331V376.205Z" fill="#6C63FF"/>
<path d="M266.877 404.586H207.192V420.804H266.877V404.586Z" fill="#6C63FF"/>
<path d="M360.874 486.488H333.277V502.706H360.874V486.488Z" fill="#6C63FF"/>
<path d="M132.076 231.459C132.076 231.459 187.912 220.917 196.255 236.324C204.598 251.732 137.21 259.841 137.21 259.841L132.076 231.459Z" fill="#A0616A"/>
<path d="M29.3895 156.045H25.3682C23.7142 156.039 22.1196 156.823 20.904 158.24C17.0867 162.719 9.0151 174.276 5.6433 194.968C1.15077 222.539 -6.55072 276.059 10.7776 280.113C28.106 284.168 141.703 264.706 141.703 264.706L133.36 227.405L51.2104 228.215C51.2104 228.215 52.494 210.376 49.9268 199.023C47.3597 187.67 29.3895 156.045 29.3895 156.045Z" fill="#575A89"/>
<path d="M262.68 109.418C277.213 109.418 288.994 94.5332 288.994 76.1715C288.994 57.8097 277.213 42.9245 262.68 42.9245C248.148 42.9245 236.367 57.8097 236.367 76.1715C236.367 94.5332 248.148 109.418 262.68 109.418Z" fill="#D0CDE1"/>
<path d="M382.695 109.418C397.228 109.418 409.009 94.5332 409.009 76.1715C409.009 57.8097 397.228 42.9245 382.695 42.9245C368.163 42.9245 356.382 57.8097 356.382 76.1715C356.382 94.5332 368.163 109.418 382.695 109.418Z" fill="#3F3D56"/>
<path d="M502.71 110.229C497.379 110.229 492.167 108.232 487.735 104.49C483.302 100.747 479.847 95.4281 477.807 89.2048C475.767 82.9816 475.233 76.1337 476.273 69.5271C477.313 62.9205 479.88 56.852 483.65 52.0889C487.42 47.3258 492.223 44.0821 497.451 42.768C502.68 41.4539 508.1 42.1283 513.025 44.7061C517.951 47.2839 522.161 51.6491 525.123 57.2499C528.084 62.8507 529.665 69.4355 529.665 76.1715C529.657 85.201 526.815 93.8579 521.761 100.243C516.708 106.628 509.857 110.219 502.71 110.229ZM502.71 43.7354C497.633 43.7354 492.669 45.6378 488.448 49.2019C484.226 52.766 480.936 57.8318 478.993 63.7587C477.05 69.6856 476.541 76.2074 477.532 82.4994C478.522 88.7914 480.967 94.571 484.558 99.1072C488.148 103.643 492.722 106.733 497.702 107.984C502.682 109.236 507.843 108.593 512.534 106.138C517.225 103.683 521.234 99.5261 524.055 94.192C526.876 88.8579 528.382 82.5867 528.382 76.1715C528.374 67.5719 525.667 59.3273 520.854 53.2465C516.041 47.1657 509.516 43.7452 502.71 43.7354Z" fill="#3F3D56"/>
<path d="M622.725 110.229C617.394 110.229 612.182 108.232 607.749 104.49C603.317 100.747 599.862 95.4281 597.822 89.2048C595.781 82.9816 595.248 76.1337 596.288 69.5271C597.328 62.9205 599.895 56.852 603.665 52.0889C607.434 47.3258 612.237 44.0821 617.466 42.768C622.695 41.4539 628.115 42.1283 633.04 44.7061C637.966 47.2839 642.175 51.6491 645.137 57.2499C648.099 62.8507 649.68 69.4355 649.68 76.1715C649.672 85.201 646.83 93.8579 641.776 100.243C636.723 106.628 629.871 110.219 622.725 110.229ZM622.725 43.7354C617.647 43.7354 612.684 45.6378 608.462 49.2019C604.241 52.766 600.95 57.8318 599.007 63.7587C597.064 69.6856 596.556 76.2074 597.547 82.4994C598.537 88.7914 600.982 94.571 604.572 99.1072C608.163 103.643 612.737 106.733 617.717 107.984C622.696 109.236 627.858 108.593 632.549 106.138C637.24 103.683 641.249 99.5261 644.07 94.192C646.891 88.8579 648.396 82.5867 648.396 76.1715C648.389 67.5719 645.682 59.3273 640.869 53.2465C636.056 47.1657 629.531 43.7452 622.725 43.7354Z" fill="#3F3D56"/>
<path d="M259.053 90.3158L247.65 71.1063L251.757 67.2132L259.608 80.439L295.702 34.8355L299.332 39.422L259.053 90.3158Z" fill="#3F3D56"/>
<path d="M534.669 513.974H10.5868V516.23H534.669V513.974Z" fill="#3F3D56"/>
</g>
<defs>
<clipPath id="clip0">
<rect width="649.68" height="516.23" fill="white"/>
</clipPath>
</defs>
</svg>
